<?xml version="1.0" standalone="no"?>
<!DOCTYPE svg PUBLIC "-//W3C//DTD SVG 20010904//EN"
 "http://www.w3.org/TR/2001/REC-SVG-20010904/DTD/svg10.dtd">
<svg version="1.0" xmlns="http://www.w3.org/2000/svg"
 width="183.000000pt" height="275.000000pt" viewBox="0 0 183.000000 275.000000"
 preserveAspectRatio="xMidYMid meet">

<g transform="translate(0.000000,275.000000) scale(0.100000,-0.100000)"
fill="#000000" stroke="none">
<path d="M740 2706 c-353 -75 -627 -338 -712 -683 -30 -123 -30 -279 0 -390
65 -241 249 -614 515 -1043 93 -151 341 -526 361 -547 13 -14 117 132 309 433
371 583 579 1018 612 1280 16 125 -37 358 -111 491 -54 97 -143 203 -230 273
-87 70 -240 148 -344 175 -88 23 -313 29 -400 11z m306 -646 c73 -36 126 -91
163 -169 22 -47 26 -70 26 -141 0 -72 -4 -94 -29 -147 -33 -72 -94 -134 -164
-165 -37 -17 -68 -22 -142 -22 -85 -1 -100 2 -148 27 -111 58 -171 140 -192
258 -10 56 -9 77 5 130 56 221 280 327 481 229z"/>
</g>
</svg>
